<?xml version="1.0" encoding="utf-8" standalone="no"?>
<!DOCTYPE svg PUBLIC "-//W3C//DTD SVG 1.1//EN"
  "http://www.w3.org/Graphics/SVG/1.1/DTD/svg11.dtd">
<svg xmlns:xlink="http://www.w3.org/1999/xlink" width="460.8pt" height="345.6pt" viewBox="0 0 460.8 345.6" xmlns="http://www.w3.org/2000/svg" version="1.1">
 <metadata>
  <rdf:RDF xmlns:dc="http://purl.org/dc/elements/1.1/" xmlns:cc="http://creativecommons.org/ns#" xmlns:rdf="http://www.w3.org/1999/02/22-rdf-syntax-ns#">
   <cc:Work>
    <dc:type rdf:resource="http://purl.org/dc/dcmitype/StillImage"/>
    <dc:date>2021-11-29T09:38:11.286500</dc:date>
    <dc:format>image/svg+xml</dc:format>
    <dc:creator>
     <cc:Agent>
      <dc:title>Matplotlib v3.5.0, https://matplotlib.org/</dc:title>
     </cc:Agent>
    </dc:creator>
   </cc:Work>
  </rdf:RDF>
 </metadata>
 <defs>
  <style type="text/css">*{stroke-linejoin: round; stroke-linecap: butt}</style>
 </defs>
 <g id="figure_1">
  <g id="patch_1">
   <path d="M 0 345.6 
L 460.8 345.6 
L 460.8 0 
L 0 0 
z
" style="fill: #ffffff"/>
  </g>
  <g id="axes_1">
   <g id="patch_2">
    <path d="M 322.913609 179.288895 
C 322.913609 170.226762 320.740172 161.295418 316.576227 153.246578 
C 312.412282 145.197738 306.378022 138.263733 298.981326 133.028168 
L 266.23684 179.288895 
L 322.913609 179.288895 
z
" style="fill: #1f77b4"/>
   </g>
   <g id="patch_3">
    <path d="M 298.981326 133.028168 
C 291.594533 127.799614 283.061741 124.415574 274.099245 123.160125 
C 265.136749 121.904677 256.002557 122.813961 247.463448 125.811648 
L 266.23684 179.288895 
L 298.981326 133.028168 
z
" style="fill: #ff7f0e"/>
   </g>
   <g id="patch_4">
    <path d="M 247.463448 125.811648 
C 239.788495 128.505969 232.782749 132.821226 226.92355 138.463395 
C 221.064352 144.105564 216.487866 150.943523 213.505914 158.511366 
L 266.23684 179.288895 
L 247.463448 125.811648 
z
" style="fill: #2ca02c"/>
   </g>
   <g id="patch_5">
    <path d="M 213.505914 158.511366 
C 210.523962 166.079209 209.205844 174.201061 209.64137 182.323536 
C 210.076896 190.446011 212.255944 198.380345 216.030045 205.585929 
L 266.23684 179.288895 
L 213.505914 158.511366 
z
" style="fill: #d62728"/>
   </g>
   <g id="patch_6">
    <path d="M 216.030045 205.585929 
C 219.27853 211.787999 223.648288 217.334787 228.917599 221.94485 
C 234.18691 226.554914 240.265118 230.148941 246.843817 232.54457 
L 266.23684 179.288895 
L 216.030045 205.585929 
z
" style="fill: #9467bd"/>
   </g>
   <g id="patch_7">
    <path d="M 246.843817 232.54457 
C 253.147661 234.840111 259.809306 235.998251 266.51802 235.964967 
C 273.226734 235.931684 279.87656 234.707504 286.157317 232.349529 
L 266.23684 179.288895 
L 246.843817 232.54457 
z
" style="fill: #8c564b"/>
   </g>
   <g id="patch_8">
    <path d="M 286.157317 232.349529 
C 290.791989 230.60954 295.178776 228.269792 299.205563 225.390083 
C 303.232351 222.510373 306.864538 219.115445 310.009297 215.292065 
L 266.23684 179.288895 
L 286.157317 232.349529 
z
" style="fill: #e377c2"/>
   </g>
   <g id="patch_9">
    <path d="M 310.009297 215.292065 
C 311.526107 213.447935 312.924863 211.509793 314.1972 209.489228 
C 315.469537 207.468663 316.612914 205.36971 317.620493 203.204922 
L 266.23684 179.288895 
L 310.009297 215.292065 
z
" style="fill: #7f7f7f"/>
   </g>
   <g id="patch_10">
    <path d="M 317.620493 203.204922 
C 318.491215 201.334175 319.259123 199.417271 319.920788 197.462775 
C 320.582453 195.50828 321.136886 193.519107 321.581613 191.504146 
L 266.23684 179.288895 
L 317.620493 203.204922 
z
" style="fill: #bcbd22"/>
   </g>
   <g id="patch_11">
    <path d="M 321.581613 191.504146 
C 322.023973 189.499902 322.357135 187.473107 322.579626 185.432721 
C 322.802118 183.392335 322.91361 181.341369 322.913609 179.288889 
L 266.23684 179.288895 
L 321.581613 191.504146 
z
" style="fill: #17becf"/>
   </g>
   <g id="matplotlib.axis_1"/>
   <g id="matplotlib.axis_2"/>
   <g id="text_1">
    <!-- /disp/daily_safety_numbers.asp -->
    <g transform="translate(321.610166 152.738597)scale(0.08 -0.08)">
     <defs>
      <path id="DejaVuSans-2f" d="M 1625 4666 
L 2156 4666 
L 531 -594 
L 0 -594 
L 1625 4666 
z
" transform="scale(0.015625)"/>
      <path id="DejaVuSans-64" d="M 2906 2969 
L 2906 4863 
L 3481 4863 
L 3481 0 
L 2906 0 
L 2906 525 
Q 2725 213 2448 61 
Q 2172 -91 1784 -91 
Q 1150 -91 751 415 
Q 353 922 353 1747 
Q 353 2572 751 3078 
Q 1150 3584 1784 3584 
Q 2172 3584 2448 3432 
Q 2725 3281 2906 2969 
z
M 947 1747 
Q 947 1113 1208 752 
Q 1469 391 1925 391 
Q 2381 391 2643 752 
Q 2906 1113 2906 1747 
Q 2906 2381 2643 2742 
Q 2381 3103 1925 3103 
Q 1469 3103 1208 2742 
Q 947 2381 947 1747 
z
" transform="scale(0.015625)"/>
      <path id="DejaVuSans-69" d="M 603 3500 
L 1178 3500 
L 1178 0 
L 603 0 
L 603 3500 
z
M 603 4863 
L 1178 4863 
L 1178 4134 
L 603 4134 
L 603 4863 
z
" transform="scale(0.015625)"/>
      <path id="DejaVuSans-73" d="M 2834 3397 
L 2834 2853 
Q 2591 2978 2328 3040 
Q 2066 3103 1784 3103 
Q 1356 3103 1142 2972 
Q 928 2841 928 2578 
Q 928 2378 1081 2264 
Q 1234 2150 1697 2047 
L 1894 2003 
Q 2506 1872 2764 1633 
Q 3022 1394 3022 966 
Q 3022 478 2636 193 
Q 2250 -91 1575 -91 
Q 1294 -91 989 -36 
Q 684 19 347 128 
L 347 722 
Q 666 556 975 473 
Q 1284 391 1588 391 
Q 1994 391 2212 530 
Q 2431 669 2431 922 
Q 2431 1156 2273 1281 
Q 2116 1406 1581 1522 
L 1381 1569 
Q 847 1681 609 1914 
Q 372 2147 372 2553 
Q 372 3047 722 3315 
Q 1072 3584 1716 3584 
Q 2034 3584 2315 3537 
Q 2597 3491 2834 3397 
z
" transform="scale(0.015625)"/>
      <path id="DejaVuSans-70" d="M 1159 525 
L 1159 -1331 
L 581 -1331 
L 581 3500 
L 1159 3500 
L 1159 2969 
Q 1341 3281 1617 3432 
Q 1894 3584 2278 3584 
Q 2916 3584 3314 3078 
Q 3713 2572 3713 1747 
Q 3713 922 3314 415 
Q 2916 -91 2278 -91 
Q 1894 -91 1617 61 
Q 1341 213 1159 525 
z
M 3116 1747 
Q 3116 2381 2855 2742 
Q 2594 3103 2138 3103 
Q 1681 3103 1420 2742 
Q 1159 2381 1159 1747 
Q 1159 1113 1420 752 
Q 1681 391 2138 391 
Q 2594 391 2855 752 
Q 3116 1113 3116 1747 
z
" transform="scale(0.015625)"/>
      <path id="DejaVuSans-61" d="M 2194 1759 
Q 1497 1759 1228 1600 
Q 959 1441 959 1056 
Q 959 750 1161 570 
Q 1363 391 1709 391 
Q 2188 391 2477 730 
Q 2766 1069 2766 1631 
L 2766 1759 
L 2194 1759 
z
M 3341 1997 
L 3341 0 
L 2766 0 
L 2766 531 
Q 2569 213 2275 61 
Q 1981 -91 1556 -91 
Q 1019 -91 701 211 
Q 384 513 384 1019 
Q 384 1609 779 1909 
Q 1175 2209 1959 2209 
L 2766 2209 
L 2766 2266 
Q 2766 2663 2505 2880 
Q 2244 3097 1772 3097 
Q 1472 3097 1187 3025 
Q 903 2953 641 2809 
L 641 3341 
Q 956 3463 1253 3523 
Q 1550 3584 1831 3584 
Q 2591 3584 2966 3190 
Q 3341 2797 3341 1997 
z
" transform="scale(0.015625)"/>
      <path id="DejaVuSans-6c" d="M 603 4863 
L 1178 4863 
L 1178 0 
L 603 0 
L 603 4863 
z
" transform="scale(0.015625)"/>
      <path id="DejaVuSans-79" d="M 2059 -325 
Q 1816 -950 1584 -1140 
Q 1353 -1331 966 -1331 
L 506 -1331 
L 506 -850 
L 844 -850 
Q 1081 -850 1212 -737 
Q 1344 -625 1503 -206 
L 1606 56 
L 191 3500 
L 800 3500 
L 1894 763 
L 2988 3500 
L 3597 3500 
L 2059 -325 
z
" transform="scale(0.015625)"/>
      <path id="DejaVuSans-5f" d="M 3263 -1063 
L 3263 -1509 
L -63 -1509 
L -63 -1063 
L 3263 -1063 
z
" transform="scale(0.015625)"/>
      <path id="DejaVuSans-66" d="M 2375 4863 
L 2375 4384 
L 1825 4384 
Q 1516 4384 1395 4259 
Q 1275 4134 1275 3809 
L 1275 3500 
L 2222 3500 
L 2222 3053 
L 1275 3053 
L 1275 0 
L 697 0 
L 697 3053 
L 147 3053 
L 147 3500 
L 697 3500 
L 697 3744 
Q 697 4328 969 4595 
Q 1241 4863 1831 4863 
L 2375 4863 
z
" transform="scale(0.015625)"/>
      <path id="DejaVuSans-65" d="M 3597 1894 
L 3597 1613 
L 953 1613 
Q 991 1019 1311 708 
Q 1631 397 2203 397 
Q 2534 397 2845 478 
Q 3156 559 3463 722 
L 3463 178 
Q 3153 47 2828 -22 
Q 2503 -91 2169 -91 
Q 1331 -91 842 396 
Q 353 884 353 1716 
Q 353 2575 817 3079 
Q 1281 3584 2069 3584 
Q 2775 3584 3186 3129 
Q 3597 2675 3597 1894 
z
M 3022 2063 
Q 3016 2534 2758 2815 
Q 2500 3097 2075 3097 
Q 1594 3097 1305 2825 
Q 1016 2553 972 2059 
L 3022 2063 
z
" transform="scale(0.015625)"/>
      <path id="DejaVuSans-74" d="M 1172 4494 
L 1172 3500 
L 2356 3500 
L 2356 3053 
L 1172 3053 
L 1172 1153 
Q 1172 725 1289 603 
Q 1406 481 1766 481 
L 2356 481 
L 2356 0 
L 1766 0 
Q 1100 0 847 248 
Q 594 497 594 1153 
L 594 3053 
L 172 3053 
L 172 3500 
L 594 3500 
L 594 4494 
L 1172 4494 
z
" transform="scale(0.015625)"/>
      <path id="DejaVuSans-6e" d="M 3513 2113 
L 3513 0 
L 2938 0 
L 2938 2094 
Q 2938 2591 2744 2837 
Q 2550 3084 2163 3084 
Q 1697 3084 1428 2787 
Q 1159 2491 1159 1978 
L 1159 0 
L 581 0 
L 581 3500 
L 1159 3500 
L 1159 2956 
Q 1366 3272 1645 3428 
Q 1925 3584 2291 3584 
Q 2894 3584 3203 3211 
Q 3513 2838 3513 2113 
z
" transform="scale(0.015625)"/>
      <path id="DejaVuSans-75" d="M 544 1381 
L 544 3500 
L 1119 3500 
L 1119 1403 
Q 1119 906 1312 657 
Q 1506 409 1894 409 
Q 2359 409 2629 706 
Q 2900 1003 2900 1516 
L 2900 3500 
L 3475 3500 
L 3475 0 
L 2900 0 
L 2900 538 
Q 2691 219 2414 64 
Q 2138 -91 1772 -91 
Q 1169 -91 856 284 
Q 544 659 544 1381 
z
M 1991 3584 
L 1991 3584 
z
" transform="scale(0.015625)"/>
      <path id="DejaVuSans-6d" d="M 3328 2828 
Q 3544 3216 3844 3400 
Q 4144 3584 4550 3584 
Q 5097 3584 5394 3201 
Q 5691 2819 5691 2113 
L 5691 0 
L 5113 0 
L 5113 2094 
Q 5113 2597 4934 2840 
Q 4756 3084 4391 3084 
Q 3944 3084 3684 2787 
Q 3425 2491 3425 1978 
L 3425 0 
L 2847 0 
L 2847 2094 
Q 2847 2600 2669 2842 
Q 2491 3084 2119 3084 
Q 1678 3084 1418 2786 
Q 1159 2488 1159 1978 
L 1159 0 
L 581 0 
L 581 3500 
L 1159 3500 
L 1159 2956 
Q 1356 3278 1631 3431 
Q 1906 3584 2284 3584 
Q 2666 3584 2933 3390 
Q 3200 3197 3328 2828 
z
" transform="scale(0.015625)"/>
      <path id="DejaVuSans-62" d="M 3116 1747 
Q 3116 2381 2855 2742 
Q 2594 3103 2138 3103 
Q 1681 3103 1420 2742 
Q 1159 2381 1159 1747 
Q 1159 1113 1420 752 
Q 1681 391 2138 391 
Q 2594 391 2855 752 
Q 3116 1113 3116 1747 
z
M 1159 2969 
Q 1341 3281 1617 3432 
Q 1894 3584 2278 3584 
Q 2916 3584 3314 3078 
Q 3713 2572 3713 1747 
Q 3713 922 3314 415 
Q 2916 -91 2278 -91 
Q 1894 -91 1617 61 
Q 1341 213 1159 525 
L 1159 0 
L 581 0 
L 581 4863 
L 1159 4863 
L 1159 2969 
z
" transform="scale(0.015625)"/>
      <path id="DejaVuSans-72" d="M 2631 2963 
Q 2534 3019 2420 3045 
Q 2306 3072 2169 3072 
Q 1681 3072 1420 2755 
Q 1159 2438 1159 1844 
L 1159 0 
L 581 0 
L 581 3500 
L 1159 3500 
L 1159 2956 
Q 1341 3275 1631 3429 
Q 1922 3584 2338 3584 
Q 2397 3584 2469 3576 
Q 2541 3569 2628 3553 
L 2631 2963 
z
" transform="scale(0.015625)"/>
      <path id="DejaVuSans-2e" d="M 684 794 
L 1344 794 
L 1344 0 
L 684 0 
L 684 794 
z
" transform="scale(0.015625)"/>
     </defs>
     <use xlink:href="#DejaVuSans-2f"/>
     <use xlink:href="#DejaVuSans-64" x="33.691406"/>
     <use xlink:href="#DejaVuSans-69" x="97.167969"/>
     <use xlink:href="#DejaVuSans-73" x="124.951172"/>
     <use xlink:href="#DejaVuSans-70" x="177.050781"/>
     <use xlink:href="#DejaVuSans-2f" x="240.527344"/>
     <use xlink:href="#DejaVuSans-64" x="274.21875"/>
     <use xlink:href="#DejaVuSans-61" x="337.695312"/>
     <use xlink:href="#DejaVuSans-69" x="398.974609"/>
     <use xlink:href="#DejaVuSans-6c" x="426.757812"/>
     <use xlink:href="#DejaVuSans-79" x="454.541016"/>
     <use xlink:href="#DejaVuSans-5f" x="513.720703"/>
     <use xlink:href="#DejaVuSans-73" x="563.720703"/>
     <use xlink:href="#DejaVuSans-61" x="615.820312"/>
     <use xlink:href="#DejaVuSans-66" x="677.099609"/>
     <use xlink:href="#DejaVuSans-65" x="712.304688"/>
     <use xlink:href="#DejaVuSans-74" x="773.828125"/>
     <use xlink:href="#DejaVuSans-79" x="813.037109"/>
     <use xlink:href="#DejaVuSans-5f" x="872.216797"/>
     <use xlink:href="#DejaVuSans-6e" x="922.216797"/>
     <use xlink:href="#DejaVuSans-75" x="985.595703"/>
     <use xlink:href="#DejaVuSans-6d" x="1048.974609"/>
     <use xlink:href="#DejaVuSans-62" x="1146.386719"/>
     <use xlink:href="#DejaVuSans-65" x="1209.863281"/>
     <use xlink:href="#DejaVuSans-72" x="1271.386719"/>
     <use xlink:href="#DejaVuSans-73" x="1312.5"/>
     <use xlink:href="#DejaVuSans-2e" x="1364.599609"/>
     <use xlink:href="#DejaVuSans-61" x="1396.386719"/>
     <use xlink:href="#DejaVuSans-73" x="1457.666016"/>
     <use xlink:href="#DejaVuSans-70" x="1509.765625"/>
    </g>
   </g>
   <g id="text_2">
    <!-- /disp/warranty_figures.asp -->
    <g transform="translate(274.885485 119.643498)scale(0.08 -0.08)">
     <defs>
      <path id="DejaVuSans-77" d="M 269 3500 
L 844 3500 
L 1563 769 
L 2278 3500 
L 2956 3500 
L 3675 769 
L 4391 3500 
L 4966 3500 
L 4050 0 
L 3372 0 
L 2619 2869 
L 1863 0 
L 1184 0 
L 269 3500 
z
" transform="scale(0.015625)"/>
      <path id="DejaVuSans-67" d="M 2906 1791 
Q 2906 2416 2648 2759 
Q 2391 3103 1925 3103 
Q 1463 3103 1205 2759 
Q 947 2416 947 1791 
Q 947 1169 1205 825 
Q 1463 481 1925 481 
Q 2391 481 2648 825 
Q 2906 1169 2906 1791 
z
M 3481 434 
Q 3481 -459 3084 -895 
Q 2688 -1331 1869 -1331 
Q 1566 -1331 1297 -1286 
Q 1028 -1241 775 -1147 
L 775 -588 
Q 1028 -725 1275 -790 
Q 1522 -856 1778 -856 
Q 2344 -856 2625 -561 
Q 2906 -266 2906 331 
L 2906 616 
Q 2728 306 2450 153 
Q 2172 0 1784 0 
Q 1141 0 747 490 
Q 353 981 353 1791 
Q 353 2603 747 3093 
Q 1141 3584 1784 3584 
Q 2172 3584 2450 3431 
Q 2728 3278 2906 2969 
L 2906 3500 
L 3481 3500 
L 3481 434 
z
" transform="scale(0.015625)"/>
     </defs>
     <use xlink:href="#DejaVuSans-2f"/>
     <use xlink:href="#DejaVuSans-64" x="33.691406"/>
     <use xlink:href="#DejaVuSans-69" x="97.167969"/>
     <use xlink:href="#DejaVuSans-73" x="124.951172"/>
     <use xlink:href="#DejaVuSans-70" x="177.050781"/>
     <use xlink:href="#DejaVuSans-2f" x="240.527344"/>
     <use xlink:href="#DejaVuSans-77" x="274.21875"/>
     <use xlink:href="#DejaVuSans-61" x="356.005859"/>
     <use xlink:href="#DejaVuSans-72" x="417.285156"/>
     <use xlink:href="#DejaVuSans-72" x="456.648438"/>
     <use xlink:href="#DejaVuSans-61" x="497.761719"/>
     <use xlink:href="#DejaVuSans-6e" x="559.041016"/>
     <use xlink:href="#DejaVuSans-74" x="622.419922"/>
     <use xlink:href="#DejaVuSans-79" x="661.628906"/>
     <use xlink:href="#DejaVuSans-5f" x="720.808594"/>
     <use xlink:href="#DejaVuSans-66" x="770.808594"/>
     <use xlink:href="#DejaVuSans-69" x="806.013672"/>
     <use xlink:href="#DejaVuSans-67" x="833.796875"/>
     <use xlink:href="#DejaVuSans-75" x="897.273438"/>
     <use xlink:href="#DejaVuSans-72" x="960.652344"/>
     <use xlink:href="#DejaVuSans-65" x="999.515625"/>
     <use xlink:href="#DejaVuSans-73" x="1061.039062"/>
     <use xlink:href="#DejaVuSans-2e" x="1113.138672"/>
     <use xlink:href="#DejaVuSans-61" x="1144.925781"/>
     <use xlink:href="#DejaVuSans-73" x="1206.205078"/>
     <use xlink:href="#DejaVuSans-70" x="1258.304688"/>
    </g>
   </g>
   <g id="text_3">
    <!-- /intranet_new/emp/gembaboard_remakes_prevday.asp -->
    <g transform="translate(3.679721 136.477095)scale(0.08 -0.08)">
     <defs>
      <path id="DejaVuSans-6f" d="M 1959 3097 
Q 1497 3097 1228 2736 
Q 959 2375 959 1747 
Q 959 1119 1226 758 
Q 1494 397 1959 397 
Q 2419 397 2687 759 
Q 2956 1122 2956 1747 
Q 2956 2369 2687 2733 
Q 2419 3097 1959 3097 
z
M 1959 3584 
Q 2709 3584 3137 3096 
Q 3566 2609 3566 1747 
Q 3566 888 3137 398 
Q 2709 -91 1959 -91 
Q 1206 -91 779 398 
Q 353 888 353 1747 
Q 353 2609 779 3096 
Q 1206 3584 1959 3584 
z
" transform="scale(0.015625)"/>
      <path id="DejaVuSans-6b" d="M 581 4863 
L 1159 4863 
L 1159 1991 
L 2875 3500 
L 3609 3500 
L 1753 1863 
L 3688 0 
L 2938 0 
L 1159 1709 
L 1159 0 
L 581 0 
L 581 4863 
z
" transform="scale(0.015625)"/>
      <path id="DejaVuSans-76" d="M 191 3500 
L 800 3500 
L 1894 563 
L 2988 3500 
L 3597 3500 
L 2284 0 
L 1503 0 
L 191 3500 
z
" transform="scale(0.015625)"/>
     </defs>
     <use xlink:href="#DejaVuSans-2f"/>
     <use xlink:href="#DejaVuSans-69" x="33.691406"/>
     <use xlink:href="#DejaVuSans-6e" x="61.474609"/>
     <use xlink:href="#DejaVuSans-74" x="124.853516"/>
     <use xlink:href="#DejaVuSans-72" x="164.0625"/>
     <use xlink:href="#DejaVuSans-61" x="205.175781"/>
     <use xlink:href="#DejaVuSans-6e" x="266.455078"/>
     <use xlink:href="#DejaVuSans-65" x="329.833984"/>
     <use xlink:href="#DejaVuSans-74" x="391.357422"/>
     <use xlink:href="#DejaVuSans-5f" x="430.566406"/>
     <use xlink:href="#DejaVuSans-6e" x="480.566406"/>
     <use xlink:href="#DejaVuSans-65" x="543.945312"/>
     <use xlink:href="#DejaVuSans-77" x="605.46875"/>
     <use xlink:href="#DejaVuSans-2f" x="687.255859"/>
     <use xlink:href="#DejaVuSans-65" x="720.947266"/>
     <use xlink:href="#DejaVuSans-6d" x="782.470703"/>
     <use xlink:href="#DejaVuSans-70" x="879.882812"/>
     <use xlink:href="#DejaVuSans-2f" x="943.359375"/>
     <use xlink:href="#DejaVuSans-67" x="977.050781"/>
     <use xlink:href="#DejaVuSans-65" x="1040.527344"/>
     <use xlink:href="#DejaVuSans-6d" x="1102.050781"/>
     <use xlink:href="#DejaVuSans-62" x="1199.462891"/>
     <use xlink:href="#DejaVuSans-61" x="1262.939453"/>
     <use xlink:href="#DejaVuSans-62" x="1324.21875"/>
     <use xlink:href="#DejaVuSans-6f" x="1387.695312"/>
     <use xlink:href="#DejaVuSans-61" x="1448.876953"/>
     <use xlink:href="#DejaVuSans-72" x="1510.15625"/>
     <use xlink:href="#DejaVuSans-64" x="1549.519531"/>
     <use xlink:href="#DejaVuSans-5f" x="1612.996094"/>
     <use xlink:href="#DejaVuSans-72" x="1662.996094"/>
     <use xlink:href="#DejaVuSans-65" x="1701.859375"/>
     <use xlink:href="#DejaVuSans-6d" x="1763.382812"/>
     <use xlink:href="#DejaVuSans-61" x="1860.794922"/>
     <use xlink:href="#DejaVuSans-6b" x="1922.074219"/>
     <use xlink:href="#DejaVuSans-65" x="1976.359375"/>
     <use xlink:href="#DejaVuSans-73" x="2037.882812"/>
     <use xlink:href="#DejaVuSans-5f" x="2089.982422"/>
     <use xlink:href="#DejaVuSans-70" x="2139.982422"/>
     <use xlink:href="#DejaVuSans-72" x="2203.458984"/>
     <use xlink:href="#DejaVuSans-65" x="2242.322266"/>
     <use xlink:href="#DejaVuSans-76" x="2303.845703"/>
     <use xlink:href="#DejaVuSans-64" x="2363.025391"/>
     <use xlink:href="#DejaVuSans-61" x="2426.501953"/>
     <use xlink:href="#DejaVuSans-79" x="2487.78125"/>
     <use xlink:href="#DejaVuSans-2e" x="2532.710938"/>
     <use xlink:href="#DejaVuSans-61" x="2564.498047"/>
     <use xlink:href="#DejaVuSans-73" x="2625.777344"/>
     <use xlink:href="#DejaVuSans-70" x="2677.876953"/>
    </g>
   </g>
   <g id="text_4">
    <!-- /intranet_new/emp/gembaboard_remakes_30days.asp -->
    <g transform="translate(-12.973177 184.72325)scale(0.08 -0.08)">
     <defs>
      <path id="DejaVuSans-33" d="M 2597 2516 
Q 3050 2419 3304 2112 
Q 3559 1806 3559 1356 
Q 3559 666 3084 287 
Q 2609 -91 1734 -91 
Q 1441 -91 1130 -33 
Q 819 25 488 141 
L 488 750 
Q 750 597 1062 519 
Q 1375 441 1716 441 
Q 2309 441 2620 675 
Q 2931 909 2931 1356 
Q 2931 1769 2642 2001 
Q 2353 2234 1838 2234 
L 1294 2234 
L 1294 2753 
L 1863 2753 
Q 2328 2753 2575 2939 
Q 2822 3125 2822 3475 
Q 2822 3834 2567 4026 
Q 2313 4219 1838 4219 
Q 1578 4219 1281 4162 
Q 984 4106 628 3988 
L 628 4550 
Q 988 4650 1302 4700 
Q 1616 4750 1894 4750 
Q 2613 4750 3031 4423 
Q 3450 4097 3450 3541 
Q 3450 3153 3228 2886 
Q 3006 2619 2597 2516 
z
" transform="scale(0.015625)"/>
      <path id="DejaVuSans-30" d="M 2034 4250 
Q 1547 4250 1301 3770 
Q 1056 3291 1056 2328 
Q 1056 1369 1301 889 
Q 1547 409 2034 409 
Q 2525 409 2770 889 
Q 3016 1369 3016 2328 
Q 3016 3291 2770 3770 
Q 2525 4250 2034 4250 
z
M 2034 4750 
Q 2819 4750 3233 4129 
Q 3647 3509 3647 2328 
Q 3647 1150 3233 529 
Q 2819 -91 2034 -91 
Q 1250 -91 836 529 
Q 422 1150 422 2328 
Q 422 3509 836 4129 
Q 1250 4750 2034 4750 
z
" transform="scale(0.015625)"/>
     </defs>
     <use xlink:href="#DejaVuSans-2f"/>
     <use xlink:href="#DejaVuSans-69" x="33.691406"/>
     <use xlink:href="#DejaVuSans-6e" x="61.474609"/>
     <use xlink:href="#DejaVuSans-74" x="124.853516"/>
     <use xlink:href="#DejaVuSans-72" x="164.0625"/>
     <use xlink:href="#DejaVuSans-61" x="205.175781"/>
     <use xlink:href="#DejaVuSans-6e" x="266.455078"/>
     <use xlink:href="#DejaVuSans-65" x="329.833984"/>
     <use xlink:href="#DejaVuSans-74" x="391.357422"/>
     <use xlink:href="#DejaVuSans-5f" x="430.566406"/>
     <use xlink:href="#DejaVuSans-6e" x="480.566406"/>
     <use xlink:href="#DejaVuSans-65" x="543.945312"/>
     <use xlink:href="#DejaVuSans-77" x="605.46875"/>
     <use xlink:href="#DejaVuSans-2f" x="687.255859"/>
     <use xlink:href="#DejaVuSans-65" x="720.947266"/>
     <use xlink:href="#DejaVuSans-6d" x="782.470703"/>
     <use xlink:href="#DejaVuSans-70" x="879.882812"/>
     <use xlink:href="#DejaVuSans-2f" x="943.359375"/>
     <use xlink:href="#DejaVuSans-67" x="977.050781"/>
     <use xlink:href="#DejaVuSans-65" x="1040.527344"/>
     <use xlink:href="#DejaVuSans-6d" x="1102.050781"/>
     <use xlink:href="#DejaVuSans-62" x="1199.462891"/>
     <use xlink:href="#DejaVuSans-61" x="1262.939453"/>
     <use xlink:href="#DejaVuSans-62" x="1324.21875"/>
     <use xlink:href="#DejaVuSans-6f" x="1387.695312"/>
     <use xlink:href="#DejaVuSans-61" x="1448.876953"/>
     <use xlink:href="#DejaVuSans-72" x="1510.15625"/>
     <use xlink:href="#DejaVuSans-64" x="1549.519531"/>
     <use xlink:href="#DejaVuSans-5f" x="1612.996094"/>
     <use xlink:href="#DejaVuSans-72" x="1662.996094"/>
     <use xlink:href="#DejaVuSans-65" x="1701.859375"/>
     <use xlink:href="#DejaVuSans-6d" x="1763.382812"/>
     <use xlink:href="#DejaVuSans-61" x="1860.794922"/>
     <use xlink:href="#DejaVuSans-6b" x="1922.074219"/>
     <use xlink:href="#DejaVuSans-65" x="1976.359375"/>
     <use xlink:href="#DejaVuSans-73" x="2037.882812"/>
     <use xlink:href="#DejaVuSans-5f" x="2089.982422"/>
     <use xlink:href="#DejaVuSans-33" x="2139.982422"/>
     <use xlink:href="#DejaVuSans-30" x="2203.605469"/>
     <use xlink:href="#DejaVuSans-64" x="2267.228516"/>
     <use xlink:href="#DejaVuSans-61" x="2330.705078"/>
     <use xlink:href="#DejaVuSans-79" x="2391.984375"/>
     <use xlink:href="#DejaVuSans-73" x="2451.164062"/>
     <use xlink:href="#DejaVuSans-2e" x="2503.263672"/>
     <use xlink:href="#DejaVuSans-61" x="2535.050781"/>
     <use xlink:href="#DejaVuSans-73" x="2596.330078"/>
     <use xlink:href="#DejaVuSans-70" x="2648.429688"/>
    </g>
   </g>
   <g id="text_5">
    <!-- /uploads/CustDocUpload_New.asp -->
    <g transform="translate(89.523175 228.306696)scale(0.08 -0.08)">
     <defs>
      <path id="DejaVuSans-43" d="M 4122 4306 
L 4122 3641 
Q 3803 3938 3442 4084 
Q 3081 4231 2675 4231 
Q 1875 4231 1450 3742 
Q 1025 3253 1025 2328 
Q 1025 1406 1450 917 
Q 1875 428 2675 428 
Q 3081 428 3442 575 
Q 3803 722 4122 1019 
L 4122 359 
Q 3791 134 3420 21 
Q 3050 -91 2638 -91 
Q 1578 -91 968 557 
Q 359 1206 359 2328 
Q 359 3453 968 4101 
Q 1578 4750 2638 4750 
Q 3056 4750 3426 4639 
Q 3797 4528 4122 4306 
z
" transform="scale(0.015625)"/>
      <path id="DejaVuSans-44" d="M 1259 4147 
L 1259 519 
L 2022 519 
Q 2988 519 3436 956 
Q 3884 1394 3884 2338 
Q 3884 3275 3436 3711 
Q 2988 4147 2022 4147 
L 1259 4147 
z
M 628 4666 
L 1925 4666 
Q 3281 4666 3915 4102 
Q 4550 3538 4550 2338 
Q 4550 1131 3912 565 
Q 3275 0 1925 0 
L 628 0 
L 628 4666 
z
" transform="scale(0.015625)"/>
      <path id="DejaVuSans-63" d="M 3122 3366 
L 3122 2828 
Q 2878 2963 2633 3030 
Q 2388 3097 2138 3097 
Q 1578 3097 1268 2742 
Q 959 2388 959 1747 
Q 959 1106 1268 751 
Q 1578 397 2138 397 
Q 2388 397 2633 464 
Q 2878 531 3122 666 
L 3122 134 
Q 2881 22 2623 -34 
Q 2366 -91 2075 -91 
Q 1284 -91 818 406 
Q 353 903 353 1747 
Q 353 2603 823 3093 
Q 1294 3584 2113 3584 
Q 2378 3584 2631 3529 
Q 2884 3475 3122 3366 
z
" transform="scale(0.015625)"/>
      <path id="DejaVuSans-55" d="M 556 4666 
L 1191 4666 
L 1191 1831 
Q 1191 1081 1462 751 
Q 1734 422 2344 422 
Q 2950 422 3222 751 
Q 3494 1081 3494 1831 
L 3494 4666 
L 4128 4666 
L 4128 1753 
Q 4128 841 3676 375 
Q 3225 -91 2344 -91 
Q 1459 -91 1007 375 
Q 556 841 556 1753 
L 556 4666 
z
" transform="scale(0.015625)"/>
      <path id="DejaVuSans-4e" d="M 628 4666 
L 1478 4666 
L 3547 763 
L 3547 4666 
L 4159 4666 
L 4159 0 
L 3309 0 
L 1241 3903 
L 1241 0 
L 628 0 
L 628 4666 
z
" transform="scale(0.015625)"/>
     </defs>
     <use xlink:href="#DejaVuSans-2f"/>
     <use xlink:href="#DejaVuSans-75" x="33.691406"/>
     <use xlink:href="#DejaVuSans-70" x="97.070312"/>
     <use xlink:href="#DejaVuSans-6c" x="160.546875"/>
     <use xlink:href="#DejaVuSans-6f" x="188.330078"/>
     <use xlink:href="#DejaVuSans-61" x="249.511719"/>
     <use xlink:href="#DejaVuSans-64" x="310.791016"/>
     <use xlink:href="#DejaVuSans-73" x="374.267578"/>
     <use xlink:href="#DejaVuSans-2f" x="426.367188"/>
     <use xlink:href="#DejaVuSans-43" x="460.058594"/>
     <use xlink:href="#DejaVuSans-75" x="529.882812"/>
     <use xlink:href="#DejaVuSans-73" x="593.261719"/>
     <use xlink:href="#DejaVuSans-74" x="645.361328"/>
     <use xlink:href="#DejaVuSans-44" x="684.570312"/>
     <use xlink:href="#DejaVuSans-6f" x="761.572266"/>
     <use xlink:href="#DejaVuSans-63" x="822.753906"/>
     <use xlink:href="#DejaVuSans-55" x="877.734375"/>
     <use xlink:href="#DejaVuSans-70" x="950.927734"/>
     <use xlink:href="#DejaVuSans-6c" x="1014.404297"/>
     <use xlink:href="#DejaVuSans-6f" x="1042.1875"/>
     <use xlink:href="#DejaVuSans-61" x="1103.369141"/>
     <use xlink:href="#DejaVuSans-64" x="1164.648438"/>
     <use xlink:href="#DejaVuSans-5f" x="1228.125"/>
     <use xlink:href="#DejaVuSans-4e" x="1278.125"/>
     <use xlink:href="#DejaVuSans-65" x="1352.929688"/>
     <use xlink:href="#DejaVuSans-77" x="1414.453125"/>
     <use xlink:href="#DejaVuSans-2e" x="1487.115234"/>
     <use xlink:href="#DejaVuSans-61" x="1518.902344"/>
     <use xlink:href="#DejaVuSans-73" x="1580.181641"/>
     <use xlink:href="#DejaVuSans-70" x="1632.28125"/>
    </g>
   </g>
   <g id="text_6">
    <!-- /disp/RSS_piecharts.asp -->
    <g transform="translate(266.546138 243.728825)scale(0.08 -0.08)">
     <defs>
      <path id="DejaVuSans-52" d="M 2841 2188 
Q 3044 2119 3236 1894 
Q 3428 1669 3622 1275 
L 4263 0 
L 3584 0 
L 2988 1197 
Q 2756 1666 2539 1819 
Q 2322 1972 1947 1972 
L 1259 1972 
L 1259 0 
L 628 0 
L 628 4666 
L 2053 4666 
Q 2853 4666 3247 4331 
Q 3641 3997 3641 3322 
Q 3641 2881 3436 2590 
Q 3231 2300 2841 2188 
z
M 1259 4147 
L 1259 2491 
L 2053 2491 
Q 2509 2491 2742 2702 
Q 2975 2913 2975 3322 
Q 2975 3731 2742 3939 
Q 2509 4147 2053 4147 
L 1259 4147 
z
" transform="scale(0.015625)"/>
      <path id="DejaVuSans-53" d="M 3425 4513 
L 3425 3897 
Q 3066 4069 2747 4153 
Q 2428 4238 2131 4238 
Q 1616 4238 1336 4038 
Q 1056 3838 1056 3469 
Q 1056 3159 1242 3001 
Q 1428 2844 1947 2747 
L 2328 2669 
Q 3034 2534 3370 2195 
Q 3706 1856 3706 1288 
Q 3706 609 3251 259 
Q 2797 -91 1919 -91 
Q 1588 -91 1214 -16 
Q 841 59 441 206 
L 441 856 
Q 825 641 1194 531 
Q 1563 422 1919 422 
Q 2459 422 2753 634 
Q 3047 847 3047 1241 
Q 3047 1584 2836 1778 
Q 2625 1972 2144 2069 
L 1759 2144 
Q 1053 2284 737 2584 
Q 422 2884 422 3419 
Q 422 4038 858 4394 
Q 1294 4750 2059 4750 
Q 2388 4750 2728 4690 
Q 3069 4631 3425 4513 
z
" transform="scale(0.015625)"/>
      <path id="DejaVuSans-68" d="M 3513 2113 
L 3513 0 
L 2938 0 
L 2938 2094 
Q 2938 2591 2744 2837 
Q 2550 3084 2163 3084 
Q 1697 3084 1428 2787 
Q 1159 2491 1159 1978 
L 1159 0 
L 581 0 
L 581 4863 
L 1159 4863 
L 1159 2956 
Q 1366 3272 1645 3428 
Q 1925 3584 2291 3584 
Q 2894 3584 3203 3211 
Q 3513 2838 3513 2113 
z
" transform="scale(0.015625)"/>
     </defs>
     <use xlink:href="#DejaVuSans-2f"/>
     <use xlink:href="#DejaVuSans-64" x="33.691406"/>
     <use xlink:href="#DejaVuSans-69" x="97.167969"/>
     <use xlink:href="#DejaVuSans-73" x="124.951172"/>
     <use xlink:href="#DejaVuSans-70" x="177.050781"/>
     <use xlink:href="#DejaVuSans-2f" x="240.527344"/>
     <use xlink:href="#DejaVuSans-52" x="274.21875"/>
     <use xlink:href="#DejaVuSans-53" x="343.701172"/>
     <use xlink:href="#DejaVuSans-53" x="407.177734"/>
     <use xlink:href="#DejaVuSans-5f" x="470.654297"/>
     <use xlink:href="#DejaVuSans-70" x="520.654297"/>
     <use xlink:href="#DejaVuSans-69" x="584.130859"/>
     <use xlink:href="#DejaVuSans-65" x="611.914062"/>
     <use xlink:href="#DejaVuSans-63" x="673.4375"/>
     <use xlink:href="#DejaVuSans-68" x="728.417969"/>
     <use xlink:href="#DejaVuSans-61" x="791.796875"/>
     <use xlink:href="#DejaVuSans-72" x="853.076172"/>
     <use xlink:href="#DejaVuSans-74" x="894.189453"/>
     <use xlink:href="#DejaVuSans-73" x="933.398438"/>
     <use xlink:href="#DejaVuSans-2e" x="985.498047"/>
     <use xlink:href="#DejaVuSans-61" x="1017.285156"/>
     <use xlink:href="#DejaVuSans-73" x="1078.564453"/>
     <use xlink:href="#DejaVuSans-70" x="1130.664062"/>
    </g>
   </g>
   <g id="text_7">
    <!-- /barcode/Functions/ASSY-PICK_Reprint.asp -->
    <g transform="translate(302.502436 232.096451)scale(0.08 -0.08)">
     <defs>
      <path id="DejaVuSans-46" d="M 628 4666 
L 3309 4666 
L 3309 4134 
L 1259 4134 
L 1259 2759 
L 3109 2759 
L 3109 2228 
L 1259 2228 
L 1259 0 
L 628 0 
L 628 4666 
z
" transform="scale(0.015625)"/>
      <path id="DejaVuSans-41" d="M 2188 4044 
L 1331 1722 
L 3047 1722 
L 2188 4044 
z
M 1831 4666 
L 2547 4666 
L 4325 0 
L 3669 0 
L 3244 1197 
L 1141 1197 
L 716 0 
L 50 0 
L 1831 4666 
z
" transform="scale(0.015625)"/>
      <path id="DejaVuSans-59" d="M -13 4666 
L 666 4666 
L 1959 2747 
L 3244 4666 
L 3922 4666 
L 2272 2222 
L 2272 0 
L 1638 0 
L 1638 2222 
L -13 4666 
z
" transform="scale(0.015625)"/>
      <path id="DejaVuSans-2d" d="M 313 2009 
L 1997 2009 
L 1997 1497 
L 313 1497 
L 313 2009 
z
" transform="scale(0.015625)"/>
      <path id="DejaVuSans-50" d="M 1259 4147 
L 1259 2394 
L 2053 2394 
Q 2494 2394 2734 2622 
Q 2975 2850 2975 3272 
Q 2975 3691 2734 3919 
Q 2494 4147 2053 4147 
L 1259 4147 
z
M 628 4666 
L 2053 4666 
Q 2838 4666 3239 4311 
Q 3641 3956 3641 3272 
Q 3641 2581 3239 2228 
Q 2838 1875 2053 1875 
L 1259 1875 
L 1259 0 
L 628 0 
L 628 4666 
z
" transform="scale(0.015625)"/>
      <path id="DejaVuSans-49" d="M 628 4666 
L 1259 4666 
L 1259 0 
L 628 0 
L 628 4666 
z
" transform="scale(0.015625)"/>
      <path id="DejaVuSans-4b" d="M 628 4666 
L 1259 4666 
L 1259 2694 
L 3353 4666 
L 4166 4666 
L 1850 2491 
L 4331 0 
L 3500 0 
L 1259 2247 
L 1259 0 
L 628 0 
L 628 4666 
z
" transform="scale(0.015625)"/>
     </defs>
     <use xlink:href="#DejaVuSans-2f"/>
     <use xlink:href="#DejaVuSans-62" x="33.691406"/>
     <use xlink:href="#DejaVuSans-61" x="97.167969"/>
     <use xlink:href="#DejaVuSans-72" x="158.447266"/>
     <use xlink:href="#DejaVuSans-63" x="197.310547"/>
     <use xlink:href="#DejaVuSans-6f" x="252.291016"/>
     <use xlink:href="#DejaVuSans-64" x="313.472656"/>
     <use xlink:href="#DejaVuSans-65" x="376.949219"/>
     <use xlink:href="#DejaVuSans-2f" x="438.472656"/>
     <use xlink:href="#DejaVuSans-46" x="472.164062"/>
     <use xlink:href="#DejaVuSans-75" x="524.183594"/>
     <use xlink:href="#DejaVuSans-6e" x="587.5625"/>
     <use xlink:href="#DejaVuSans-63" x="650.941406"/>
     <use xlink:href="#DejaVuSans-74" x="705.921875"/>
     <use xlink:href="#DejaVuSans-69" x="745.130859"/>
     <use xlink:href="#DejaVuSans-6f" x="772.914062"/>
     <use xlink:href="#DejaVuSans-6e" x="834.095703"/>
     <use xlink:href="#DejaVuSans-73" x="897.474609"/>
     <use xlink:href="#DejaVuSans-2f" x="949.574219"/>
     <use xlink:href="#DejaVuSans-41" x="983.265625"/>
     <use xlink:href="#DejaVuSans-53" x="1051.673828"/>
     <use xlink:href="#DejaVuSans-53" x="1115.150391"/>
     <use xlink:href="#DejaVuSans-59" x="1178.626953"/>
     <use xlink:href="#DejaVuSans-2d" x="1227.835938"/>
     <use xlink:href="#DejaVuSans-50" x="1263.919922"/>
     <use xlink:href="#DejaVuSans-49" x="1324.222656"/>
     <use xlink:href="#DejaVuSans-43" x="1353.714844"/>
     <use xlink:href="#DejaVuSans-4b" x="1423.539062"/>
     <use xlink:href="#DejaVuSans-5f" x="1489.115234"/>
     <use xlink:href="#DejaVuSans-52" x="1539.115234"/>
     <use xlink:href="#DejaVuSans-65" x="1604.097656"/>
     <use xlink:href="#DejaVuSans-70" x="1665.621094"/>
     <use xlink:href="#DejaVuSans-72" x="1729.097656"/>
     <use xlink:href="#DejaVuSans-69" x="1770.210938"/>
     <use xlink:href="#DejaVuSans-6e" x="1797.994141"/>
     <use xlink:href="#DejaVuSans-74" x="1861.373047"/>
     <use xlink:href="#DejaVuSans-2e" x="1900.582031"/>
     <use xlink:href="#DejaVuSans-61" x="1932.369141"/>
     <use xlink:href="#DejaVuSans-73" x="1993.648438"/>
     <use xlink:href="#DejaVuSans-70" x="2045.748047"/>
    </g>
   </g>
   <g id="text_8">
    <!-- /barcode/Functions/Assy-Pick_Reprint.asp -->
    <g transform="translate(318.993236 214.605511)scale(0.08 -0.08)">
     <use xlink:href="#DejaVuSans-2f"/>
     <use xlink:href="#DejaVuSans-62" x="33.691406"/>
     <use xlink:href="#DejaVuSans-61" x="97.167969"/>
     <use xlink:href="#DejaVuSans-72" x="158.447266"/>
     <use xlink:href="#DejaVuSans-63" x="197.310547"/>
     <use xlink:href="#DejaVuSans-6f" x="252.291016"/>
     <use xlink:href="#DejaVuSans-64" x="313.472656"/>
     <use xlink:href="#DejaVuSans-65" x="376.949219"/>
     <use xlink:href="#DejaVuSans-2f" x="438.472656"/>
     <use xlink:href="#DejaVuSans-46" x="472.164062"/>
     <use xlink:href="#DejaVuSans-75" x="524.183594"/>
     <use xlink:href="#DejaVuSans-6e" x="587.5625"/>
     <use xlink:href="#DejaVuSans-63" x="650.941406"/>
     <use xlink:href="#DejaVuSans-74" x="705.921875"/>
     <use xlink:href="#DejaVuSans-69" x="745.130859"/>
     <use xlink:href="#DejaVuSans-6f" x="772.914062"/>
     <use xlink:href="#DejaVuSans-6e" x="834.095703"/>
     <use xlink:href="#DejaVuSans-73" x="897.474609"/>
     <use xlink:href="#DejaVuSans-2f" x="949.574219"/>
     <use xlink:href="#DejaVuSans-41" x="983.265625"/>
     <use xlink:href="#DejaVuSans-73" x="1051.673828"/>
     <use xlink:href="#DejaVuSans-73" x="1103.773438"/>
     <use xlink:href="#DejaVuSans-79" x="1155.873047"/>
     <use xlink:href="#DejaVuSans-2d" x="1213.302734"/>
     <use xlink:href="#DejaVuSans-50" x="1249.386719"/>
     <use xlink:href="#DejaVuSans-69" x="1307.439453"/>
     <use xlink:href="#DejaVuSans-63" x="1335.222656"/>
     <use xlink:href="#DejaVuSans-6b" x="1390.203125"/>
     <use xlink:href="#DejaVuSans-5f" x="1448.113281"/>
     <use xlink:href="#DejaVuSans-52" x="1498.113281"/>
     <use xlink:href="#DejaVuSans-65" x="1563.095703"/>
     <use xlink:href="#DejaVuSans-70" x="1624.619141"/>
     <use xlink:href="#DejaVuSans-72" x="1688.095703"/>
     <use xlink:href="#DejaVuSans-69" x="1729.208984"/>
     <use xlink:href="#DejaVuSans-6e" x="1756.992188"/>
     <use xlink:href="#DejaVuSans-74" x="1820.371094"/>
     <use xlink:href="#DejaVuSans-2e" x="1859.580078"/>
     <use xlink:href="#DejaVuSans-61" x="1891.367188"/>
     <use xlink:href="#DejaVuSans-73" x="1952.646484"/>
     <use xlink:href="#DejaVuSans-70" x="2004.746094"/>
    </g>
   </g>
   <g id="text_9">
    <!-- /images/Shim.gif -->
    <g transform="translate(325.289183 201.487663)scale(0.08 -0.08)">
     <use xlink:href="#DejaVuSans-2f"/>
     <use xlink:href="#DejaVuSans-69" x="33.691406"/>
     <use xlink:href="#DejaVuSans-6d" x="61.474609"/>
     <use xlink:href="#DejaVuSans-61" x="158.886719"/>
     <use xlink:href="#DejaVuSans-67" x="220.166016"/>
     <use xlink:href="#DejaVuSans-65" x="283.642578"/>
     <use xlink:href="#DejaVuSans-73" x="345.166016"/>
     <use xlink:href="#DejaVuSans-2f" x="397.265625"/>
     <use xlink:href="#DejaVuSans-53" x="430.957031"/>
     <use xlink:href="#DejaVuSans-68" x="494.433594"/>
     <use xlink:href="#DejaVuSans-69" x="557.8125"/>
     <use xlink:href="#DejaVuSans-6d" x="585.595703"/>
     <use xlink:href="#DejaVuSans-2e" x="683.007812"/>
     <use xlink:href="#DejaVuSans-67" x="714.794922"/>
     <use xlink:href="#DejaVuSans-69" x="778.271484"/>
     <use xlink:href="#DejaVuSans-66" x="806.054688"/>
    </g>
   </g>
   <g id="text_10">
    <!-- /images/style.css -->
    <g transform="translate(328.213905 188.254604)scale(0.08 -0.08)">
     <use xlink:href="#DejaVuSans-2f"/>
     <use xlink:href="#DejaVuSans-69" x="33.691406"/>
     <use xlink:href="#DejaVuSans-6d" x="61.474609"/>
     <use xlink:href="#DejaVuSans-61" x="158.886719"/>
     <use xlink:href="#DejaVuSans-67" x="220.166016"/>
     <use xlink:href="#DejaVuSans-65" x="283.642578"/>
     <use xlink:href="#DejaVuSans-73" x="345.166016"/>
     <use xlink:href="#DejaVuSans-2f" x="397.265625"/>
     <use xlink:href="#DejaVuSans-73" x="430.957031"/>
     <use xlink:href="#DejaVuSans-74" x="483.056641"/>
     <use xlink:href="#DejaVuSans-79" x="522.265625"/>
     <use xlink:href="#DejaVuSans-6c" x="581.445312"/>
     <use xlink:href="#DejaVuSans-65" x="609.228516"/>
     <use xlink:href="#DejaVuSans-2e" x="670.751953"/>
     <use xlink:href="#DejaVuSans-63" x="702.539062"/>
     <use xlink:href="#DejaVuSans-73" x="757.519531"/>
     <use xlink:href="#DejaVuSans-73" x="809.619141"/>
    </g>
   </g>
   <g id="text_11">
    <!-- 10 Most Requested Pages -->
    <g transform="translate(188.853789 20.88)scale(0.12 -0.12)">
     <defs>
      <path id="DejaVuSans-31" d="M 794 531 
L 1825 531 
L 1825 4091 
L 703 3866 
L 703 4441 
L 1819 4666 
L 2450 4666 
L 2450 531 
L 3481 531 
L 3481 0 
L 794 0 
L 794 531 
z
" transform="scale(0.015625)"/>
      <path id="DejaVuSans-20" transform="scale(0.015625)"/>
      <path id="DejaVuSans-4d" d="M 628 4666 
L 1569 4666 
L 2759 1491 
L 3956 4666 
L 4897 4666 
L 4897 0 
L 4281 0 
L 4281 4097 
L 3078 897 
L 2444 897 
L 1241 4097 
L 1241 0 
L 628 0 
L 628 4666 
z
" transform="scale(0.015625)"/>
      <path id="DejaVuSans-71" d="M 947 1747 
Q 947 1113 1208 752 
Q 1469 391 1925 391 
Q 2381 391 2643 752 
Q 2906 1113 2906 1747 
Q 2906 2381 2643 2742 
Q 2381 3103 1925 3103 
Q 1469 3103 1208 2742 
Q 947 2381 947 1747 
z
M 2906 525 
Q 2725 213 2448 61 
Q 2172 -91 1784 -91 
Q 1150 -91 751 415 
Q 353 922 353 1747 
Q 353 2572 751 3078 
Q 1150 3584 1784 3584 
Q 2172 3584 2448 3432 
Q 2725 3281 2906 2969 
L 2906 3500 
L 3481 3500 
L 3481 -1331 
L 2906 -1331 
L 2906 525 
z
" transform="scale(0.015625)"/>
     </defs>
     <use xlink:href="#DejaVuSans-31"/>
     <use xlink:href="#DejaVuSans-30" x="63.623047"/>
     <use xlink:href="#DejaVuSans-20" x="127.246094"/>
     <use xlink:href="#DejaVuSans-4d" x="159.033203"/>
     <use xlink:href="#DejaVuSans-6f" x="245.3125"/>
     <use xlink:href="#DejaVuSans-73" x="306.494141"/>
     <use xlink:href="#DejaVuSans-74" x="358.59375"/>
     <use xlink:href="#DejaVuSans-20" x="397.802734"/>
     <use xlink:href="#DejaVuSans-52" x="429.589844"/>
     <use xlink:href="#DejaVuSans-65" x="494.572266"/>
     <use xlink:href="#DejaVuSans-71" x="556.095703"/>
     <use xlink:href="#DejaVuSans-75" x="619.572266"/>
     <use xlink:href="#DejaVuSans-65" x="682.951172"/>
     <use xlink:href="#DejaVuSans-73" x="744.474609"/>
     <use xlink:href="#DejaVuSans-74" x="796.574219"/>
     <use xlink:href="#DejaVuSans-65" x="835.783203"/>
     <use xlink:href="#DejaVuSans-64" x="897.306641"/>
     <use xlink:href="#DejaVuSans-20" x="960.783203"/>
     <use xlink:href="#DejaVuSans-50" x="992.570312"/>
     <use xlink:href="#DejaVuSans-61" x="1048.373047"/>
     <use xlink:href="#DejaVuSans-67" x="1109.652344"/>
     <use xlink:href="#DejaVuSans-65" x="1173.128906"/>
     <use xlink:href="#DejaVuSans-73" x="1234.652344"/>
    </g>
   </g>
  </g>
 </g>
</svg>
